<?xml version="1.0" standalone="no"?>
<!DOCTYPE svg PUBLIC "-//W3C//DTD SVG 20010904//EN"
 "http://www.w3.org/TR/2001/REC-SVG-20010904/DTD/svg10.dtd">
<svg version="1.0" xmlns="http://www.w3.org/2000/svg"
 width="150.000000pt" height="150.000000pt" viewBox="0 0 150.000000 150.000000"
 preserveAspectRatio="xMidYMid meet">

<g transform="translate(0.000000,150.000000) scale(0.100000,-0.100000)"
fill="#000000" stroke="none">
<path d="M737 1428 c-9 -7 -68 -116 -131 -241 -63 -126 -120 -235 -127 -243
-8 -10 -34 -14 -94 -14 -67 0 -85 -3 -98 -18 -25 -27 -21 -47 19 -113 32 -52
36 -64 30 -101 -4 -24 -59 -149 -123 -278 -91 -183 -117 -246 -121 -286 -8
-91 -61 -84 678 -84 576 0 650 2 664 16 9 8 16 24 16 35 0 17 -97 218 -219
454 -57 110 -55 121 36 233 35 43 43 61 41 85 -4 45 -35 57 -146 57 -92 0 -95
1 -123 31 -16 17 -29 36 -29 43 0 21 -166 349 -199 394 -33 44 -47 50 -74 30z
m151 -271 c67 -131 122 -240 122 -243 0 -2 -4 -4 -10 -4 -5 0 -59 99 -120 220
-61 121 -112 220 -115 220 -3 0 -54 -99 -115 -220 -61 -121 -115 -220 -120
-220 -6 0 -10 2 -10 5 0 9 241 487 244 484 2 -2 58 -111 124 -242z m-128 -324
c22 -26 39 -52 36 -59 -3 -7 -42 -56 -87 -108 l-82 -96 -65 0 c-59 0 -63 1
-51 17 8 9 47 55 87 102 l73 86 -145 3 -145 3 -41 49 -42 50 210 0 210 0 42
-47z m520 43 c0 -3 -104 -125 -231 -273 l-231 -268 195 -5 195 -5 42 -47 42
-48 -348 0 -347 0 20 23 c11 12 117 136 237 275 l217 252 -114 0 -114 0 -42
50 -42 50 260 0 c144 0 261 -2 261 -4z m-790 -383 l0 -258 -40 0 -40 -1 0 186
c-1 102 -3 218 -7 258 l-5 72 46 0 46 0 0 -257z m785 -103 c74 -148 135 -272
135 -275 0 -3 -205 -5 -455 -4 -403 1 -489 5 -442 21 6 3 201 6 432 7 231 2
421 4 423 6 2 2 -53 115 -121 251 -110 219 -129 264 -111 264 2 0 65 -121 139
-270z m-975 50 c-45 -89 -84 -159 -87 -156 -4 4 31 83 78 177 46 94 85 164 87
156 2 -8 -33 -88 -78 -177z m-103 -202 c-3 -7 -5 -2 -5 12 0 14 2 19 5 13 2
-7 2 -19 0 -25z m-42 -83 c-10 -19 -21 -35 -26 -35 -5 0 1 21 13 46 13 25 24
41 26 35 2 -6 -4 -26 -13 -46z m221 -33 c-4 -6 -62 -7 -76 -1 -3 1 11 5 30 8
36 7 53 5 46 -7z m34 -3 c0 -6 -4 -7 -10 -4 -5 3 -10 11 -10 16 0 6 5 7 10 4
6 -3 10 -11 10 -16z m35 11 c3 -5 1 -10 -4 -10 -6 0 -11 5 -11 10 0 6 2 10 4
10 3 0 8 -4 11 -10z m-228 -6 c-3 -3 -12 -4 -19 -1 -8 3 -5 6 6 6 11 1 17 -2
13 -5z m63 2 c0 -11 -19 -15 -25 -6 -3 5 1 10 9 10 9 0 16 -2 16 -4z"/>
<path d="M430 282 c0 -18 5 -32 10 -32 6 0 8 11 4 28 -10 39 -14 40 -14 4z"/>
<path d="M462 270 c0 -14 2 -19 5 -12 2 6 2 18 0 25 -3 6 -5 1 -5 -13z"/>
</g>
</svg>
